<?xml version="1.0" standalone="no"?>
<!DOCTYPE svg PUBLIC "-//W3C//DTD SVG 20010904//EN"
 "http://www.w3.org/TR/2001/REC-SVG-20010904/DTD/svg10.dtd">
<svg version="1.0" xmlns="http://www.w3.org/2000/svg"
 width="1024.000000pt" height="1536.000000pt" viewBox="0 0 1024.000000 1536.000000"
 preserveAspectRatio="xMidYMid meet">

<g transform="translate(0.000000,1536.000000) scale(0.100000,-0.100000)"
fill="#000000" stroke="none">
<path d="M5660 13383 c-68 -6 -296 -44 -359 -59 -163 -40 -443 -156 -526 -219
-45 -33 -104 -61 -170 -80 -33 -10 -64 -21 -70 -25 -17 -13 -75 -19 -180 -21
-103 -2 -156 -12 -139 -29 17 -17 159 -50 239 -56 128 -10 183 8 370 121 88
54 180 106 205 117 80 35 304 107 381 122 171 34 453 53 554 36 28 -4 84 -13
125 -20 161 -26 390 -101 490 -160 77 -46 162 -102 240 -161 141 -106 229
-146 345 -157 123 -11 166 -8 228 21 68 31 79 60 20 52 -70 -10 -127 -6 -208
15 -107 28 -162 55 -275 132 -131 89 -288 184 -357 214 -157 70 -354 129 -475
143 -93 11 -372 19 -438 14z"/>
<path d="M4078 12823 c-29 -5 -36 -17 -17 -29 29 -17 190 -54 239 -54 69 0
136 18 122 32 -31 31 -263 66 -344 51z"/>
<path d="M7349 12746 c-2 -2 -37 -7 -78 -10 -41 -3 -76 -8 -79 -11 -11 -10 34
-34 76 -41 60 -9 133 1 189 26 37 16 44 23 33 30 -15 9 -133 14 -141 6z"/>
<path d="M4065 12704 c-72 -37 -187 -127 -253 -199 -58 -64 -83 -108 -170
-295 -82 -178 -141 -226 -302 -245 -19 -2 -37 -4 -39 -4 -15 -3 29 -33 62 -42
97 -26 207 0 263 63 45 50 111 159 182 301 88 177 135 230 292 332 110 72 143
99 133 109 -4 3 -31 6 -62 6 -40 0 -70 -8 -106 -26z"/>
<path d="M4839 12633 c-19 -21 -41 -54 -48 -73 -8 -19 -24 -49 -37 -66 -12
-16 -42 -68 -66 -115 -40 -77 -55 -118 -75 -199 -3 -14 -5 -88 -4 -165 1 -160
-3 -160 -49 1 -45 156 -43 225 10 357 22 54 40 102 40 105 0 3 -15 -9 -34 -27
-19 -18 -49 -65 -67 -104 -29 -64 -33 -81 -32 -154 2 -93 29 -206 67 -273 60
-107 83 -158 94 -210 67 -329 85 -604 48 -750 -54 -215 -231 -430 -354 -430
-66 0 -118 45 -175 150 -45 83 -73 186 -95 345 -10 69 -22 127 -27 128 -18 4
-26 -96 -20 -237 4 -76 9 -145 12 -155 10 -26 -178 176 -221 238 -80 116 -110
222 -101 352 5 61 21 147 37 194 1 6 -1 12 -7 14 -18 8 -85 -105 -112 -189
-21 -65 -27 -105 -27 -172 l0 -88 -29 28 c-52 49 -70 97 -65 172 6 85 38 154
115 250 73 92 109 153 116 201 8 54 -6 63 -28 17 -10 -21 -57 -81 -104 -131
-121 -132 -157 -180 -180 -242 -58 -153 2 -292 156 -362 40 -18 67 -42 113
-97 32 -41 96 -104 140 -142 79 -67 81 -69 75 -104 -12 -63 -68 -153 -140
-227 -56 -56 -82 -74 -120 -85 -61 -18 -67 -33 -19 -48 74 -25 169 3 246 72
47 42 103 135 119 197 l12 49 23 -47 c37 -72 96 -134 160 -166 51 -26 70 -30
139 -30 67 1 89 5 140 30 84 40 233 191 279 283 67 136 71 156 70 382 -1 189
-4 217 -33 360 -40 191 -55 398 -48 650 6 199 16 255 66 357 51 103 84 183 79
188 -3 3 -21 -11 -39 -32z"/>
<path d="M7048 12625 c-3 -13 0 -33 7 -42 28 -40 93 -171 108 -218 55 -168 63
-426 22 -689 -14 -88 -25 -199 -25 -248 0 -48 -3 -88 -7 -88 -5 1 -26 25 -48
55 -22 30 -119 130 -215 223 -132 127 -191 192 -235 258 -71 108 -64 98 -70
93 -7 -8 21 -105 45 -154 39 -81 222 -299 390 -464 l85 -83 -65 7 c-288 35
-540 -55 -585 -209 -29 -97 -16 -163 47 -247 18 -24 41 -55 49 -69 32 -49 124
-110 205 -136 43 -13 82 -28 87 -33 10 -10 -13 -60 -49 -108 -84 -112 -364
-214 -589 -214 -73 0 -83 2 -154 21 -131 35 -240 126 -414 345 l-88 110 43 3
c24 2 47 7 52 12 12 12 -40 37 -100 47 -59 11 -98 0 -150 -40 -43 -35 -56 -66
-46 -115 9 -41 33 -53 60 -29 9 8 27 18 39 21 20 6 24 1 37 -46 23 -76 75
-197 107 -243 30 -45 156 -169 209 -205 19 -13 41 -30 48 -37 7 -7 38 -24 70
-38 36 -17 64 -38 77 -58 37 -57 139 -135 202 -153 32 -9 78 -27 103 -40 65
-34 194 -64 275 -64 62 0 105 8 195 34 24 8 24 7 -5 -19 -35 -32 -100 -66
-170 -90 -134 -45 -361 5 -574 127 -106 61 -121 73 -246 188 -55 51 -120 106
-144 123 -64 44 -199 99 -235 95 l-31 -3 46 -45 c25 -25 65 -58 88 -75 43 -30
153 -138 233 -229 124 -142 293 -244 482 -291 197 -50 413 -19 550 79 77 55
146 121 169 162 90 161 120 245 126 351 1 16 6 20 21 16 25 -7 102 38 128 73
l19 27 6 -84 c6 -95 30 -160 85 -227 20 -24 48 -50 63 -58 37 -19 109 -18 138
2 l23 16 -34 20 c-110 66 -165 177 -175 354 -6 96 -4 107 27 206 l34 104 54
-32 c64 -39 126 -51 177 -34 80 26 92 113 39 280 -31 96 -35 124 -32 183 4 65
6 71 38 99 83 70 110 101 142 165 30 62 33 75 33 163 0 85 -3 101 -29 150 -16
30 -42 72 -58 93 -30 37 -80 71 -91 61 -3 -3 12 -39 33 -80 61 -120 63 -249 5
-365 -45 -87 -50 -81 -51 64 -1 150 -23 273 -80 446 -54 166 -157 361 -179
340 -3 -4 12 -62 34 -130 100 -309 141 -525 140 -727 0 -111 -13 -142 -23 -59
-3 28 -8 66 -10 82 -3 17 -8 59 -11 95 -7 69 -47 202 -70 234 -27 36 -32 7
-15 -86 10 -51 23 -157 29 -235 6 -78 18 -177 26 -220 9 -43 20 -105 26 -138
6 -33 21 -100 34 -150 13 -49 27 -109 30 -132 6 -38 4 -43 -12 -43 -22 1 -43
13 -111 65 l-52 39 1 111 c1 60 -2 124 -6 140 -9 35 -50 119 -76 156 -42 60
-68 275 -48 409 5 36 19 123 30 195 43 279 17 541 -68 687 -63 109 -155 218
-183 218 -4 0 -10 -11 -12 -25z m48 -1464 c16 -5 41 -12 57 -15 15 -4 27 -12
27 -19 0 -10 -22 -13 -92 -11 -51 1 -120 -2 -153 -7 -33 -4 -91 -11 -130 -15
-38 -3 -78 -10 -87 -15 -12 -6 -18 -6 -18 1 0 5 7 10 15 10 8 0 15 4 15 10 0
14 89 51 145 60 72 11 187 11 221 1z m191 -354 c3 -66 0 -105 -15 -165 -44
-169 -121 -329 -174 -360 -26 -15 -29 -15 -65 11 -80 57 -142 113 -153 138
-10 22 -8 36 11 80 29 69 33 74 62 77 46 3 122 34 161 65 41 33 116 171 116
214 0 13 5 23 10 23 6 0 10 10 10 23 0 12 3 33 7 47 7 22 8 20 16 -20 5 -25
11 -84 14 -133z m-421 80 c-3 -14 -12 -27 -19 -30 -10 -4 -10 2 2 28 18 37 26
38 17 2z m-161 -93 c20 -3 54 -4 75 0 48 7 52 0 9 -18 -66 -28 -149 6 -185 75
-14 28 -13 28 25 -10 25 -25 53 -42 76 -47z m408 16 c-3 -11 -9 -20 -14 -20
-10 0 -12 24 -2 33 13 13 21 7 16 -13z m-126 -22 c-3 -8 -6 -5 -6 6 -1 11 2
17 5 13 3 -3 4 -12 1 -19z m-78 -559 l33 -12 -4 -81 c-4 -100 -33 -166 -88
-202 -149 -99 -391 -58 -469 77 -28 48 -30 139 -3 140 30 1 75 9 150 25 86 18
82 20 148 -77 26 -38 52 -69 57 -69 16 0 -1 90 -26 135 -13 23 -19 42 -13 43
6 0 43 7 81 15 89 19 95 19 134 6z m-633 -117 c-8 -49 -19 -58 -49 -36 -22 16
-47 54 -47 70 0 2 23 4 51 3 l51 -2 -6 -35z"/>
<path d="M6920 10520 c0 -5 5 -10 10 -10 6 0 10 5 10 10 0 6 -4 10 -10 10 -5
0 -10 -4 -10 -10z"/>
<path d="M7110 10508 c0 -19 2 -20 10 -8 13 19 13 30 0 30 -5 0 -10 -10 -10
-22z"/>
<path d="M7045 10500 c3 -5 10 -10 16 -10 5 0 9 5 9 10 0 6 -7 10 -16 10 -8 0
-12 -4 -9 -10z"/>
<path d="M7080 10500 c0 -5 5 -10 10 -10 6 0 10 5 10 10 0 6 -4 10 -10 10 -5
0 -10 -4 -10 -10z"/>
<path d="M6980 10491 c0 -4 11 -8 25 -9 14 -1 25 2 25 7 0 5 -11 9 -25 9 -14
0 -25 -3 -25 -7z"/>
<path d="M6940 10420 c0 -5 5 -10 10 -10 6 0 10 5 10 10 0 6 -4 10 -10 10 -5
0 -10 -4 -10 -10z"/>
<path d="M7308 12635 c-13 -14 5 -36 66 -79 68 -48 181 -164 210 -216 l19 -33
-47 32 c-56 39 -124 71 -151 71 -15 0 3 -21 63 -78 92 -87 141 -161 173 -266
12 -39 30 -90 40 -113 27 -63 8 -52 -24 13 -47 96 -186 268 -203 252 -3 -3 20
-48 52 -100 31 -51 84 -142 118 -203 98 -176 188 -252 288 -243 63 6 70 15 33
41 -85 61 -145 160 -213 352 -27 78 -35 113 -33 160 4 100 -8 160 -40 208 -57
87 -148 160 -231 185 -48 15 -113 24 -120 17z"/>
<path d="M4540 12585 c-62 -17 -90 -30 -108 -50 -35 -42 -15 -54 51 -31 54 18
157 82 157 97 0 12 0 12 -100 -16z"/>
<path d="M4162 12553 c-61 -42 -108 -103 -153 -198 -64 -137 -92 -345 -46
-353 13 -3 17 3 17 23 0 33 42 199 73 285 26 76 79 159 136 215 62 61 47 77
-27 28z"/>
<path d="M6705 12549 c-78 -69 -102 -130 -84 -216 11 -58 25 -68 34 -25 27
126 43 165 94 221 17 19 31 38 31 43 0 19 -42 6 -75 -23z"/>
<path d="M5895 12539 c12 -13 40 -46 64 -72 52 -58 80 -118 81 -172 1 -22 5
-49 10 -60 7 -19 9 -18 19 8 17 43 13 147 -7 188 -20 42 -86 103 -122 113 -71
21 -67 21 -45 -5z"/>
<path d="M5630 12273 c0 -12 64 -72 120 -112 37 -26 46 -29 48 -16 3 13 7 14
18 4 11 -9 14 -8 14 3 0 20 -39 61 -87 91 -43 27 -113 46 -113 30z"/>
<path d="M6824 12258 c-56 -63 -94 -177 -94 -281 0 -72 31 -165 66 -195 24
-21 33 -23 78 -17 28 4 66 16 85 28 36 22 91 100 91 129 0 10 5 18 10 18 23 0
-5 76 -41 113 -44 43 -141 61 -205 37 -15 -6 -28 -9 -31 -7 -7 8 26 73 61 119
20 26 36 54 36 62 0 23 -34 19 -56 -6z m55 -250 c0 -7 -4 -21 -8 -31 -6 -17
-8 -17 -20 -3 -11 13 -11 19 -1 31 15 18 30 20 29 3z"/>
<path d="M4180 12028 c-38 -114 -73 -185 -136 -274 -49 -69 -51 -74 -26 -74
48 0 155 147 187 259 19 62 30 191 18 191 -5 0 -25 -46 -43 -102z"/>
<path d="M5573 12061 c-92 -42 -176 -125 -201 -198 -10 -30 -9 -33 9 -33 10 0
58 -21 106 -47 82 -44 92 -47 163 -48 69 0 79 3 135 37 l60 37 3 -30 c4 -38
15 -37 35 6 21 44 21 52 2 71 -8 9 -15 25 -15 37 -1 30 -36 107 -63 135 -24
26 -104 52 -156 52 -20 0 -55 -9 -78 -19z m97 -126 c0 -29 -13 -39 -40 -30
-26 8 -25 30 2 49 26 18 38 13 38 -19z"/>
<path d="M4325 11888 c-37 -152 -125 -361 -197 -465 -20 -30 -25 -43 -15 -43
61 0 175 184 218 354 25 96 37 226 22 226 -6 0 -19 -33 -28 -72z"/>
<path d="M3554 11876 c-135 -72 -228 -160 -272 -254 -21 -47 -26 -72 -26 -142
-1 -96 20 -152 73 -189 37 -27 44 -12 31 60 -16 85 -12 173 11 231 30 76 106
174 193 246 106 89 102 109 -10 48z"/>
<path d="M4857 11845 c-39 -36 -57 -70 -57 -111 0 -31 16 -31 24 0 3 13 22 47
41 75 45 65 42 81 -8 36z"/>
<path d="M5010 11822 c-26 -8 -111 -95 -131 -134 -27 -52 -24 -68 7 -33 14 17
37 44 51 60 14 17 42 47 61 67 36 38 39 49 12 40z"/>
<path d="M4417 11492 c-7 -126 -18 -173 -77 -327 -21 -55 -42 -111 -45 -125
-7 -25 -7 -25 25 5 71 67 140 262 140 395 0 63 -17 157 -29 165 -5 2 -11 -48
-14 -113z"/>
<path d="M3834 11226 c-14 -37 6 -151 40 -221 36 -77 80 -135 102 -135 19 0
18 5 -15 64 -36 63 -76 163 -96 240 -17 67 -22 76 -31 52z"/>
<path d="M4911 11068 c-5 -13 -18 -77 -30 -143 -11 -66 -26 -136 -31 -155 -14
-49 -13 -55 9 -36 36 33 62 123 68 243 6 110 1 136 -16 91z"/>
<path d="M5032 10848 c-6 -7 -20 -38 -33 -68 -30 -74 -31 -171 -3 -225 21 -41
65 -66 49 -29 -20 48 -23 114 -9 218 8 59 13 110 11 112 -2 3 -9 -1 -15 -8z"/>
<path d="M6170 10744 c0 -17 22 -14 28 4 2 7 -3 12 -12 12 -9 0 -16 -7 -16
-16z"/>
<path d="M6026 10673 c-12 -12 -6 -33 9 -33 8 0 15 6 15 14 0 17 -14 28 -24
19z"/>
<path d="M5086 10605 c-7 -28 8 -93 31 -138 23 -45 84 -107 104 -107 18 0 16
5 -12 53 -17 28 -48 89 -69 135 -22 45 -41 82 -43 82 -3 0 -8 -11 -11 -25z"/>
<path d="M6182 10593 c5 -25 28 -28 28 -4 0 12 -6 21 -16 21 -9 0 -14 -7 -12
-17z"/>
<path d="M6340 10584 c0 -33 33 -30 38 4 3 17 -2 22 -17 22 -16 0 -21 -6 -21
-26z"/>
<path d="M6460 10530 c0 -5 5 -10 10 -10 6 0 10 5 10 10 0 6 -4 10 -10 10 -5
0 -10 -4 -10 -10z"/>
<path d="M6635 10460 c-3 -5 -1 -10 4 -10 6 0 11 5 11 10 0 6 -2 10 -4 10 -3
0 -8 -4 -11 -10z"/>
<path d="M3884 10355 c-284 -285 -491 -565 -545 -735 -26 -83 -46 -325 -31
-369 8 -23 8 -34 -1 -43 -14 -15 -234 -306 -289 -382 -46 -63 -256 -393 -370
-581 -119 -195 -353 -643 -400 -765 -5 -14 -31 -77 -58 -140 -27 -63 -71 -173
-100 -244 -93 -235 -208 -446 -357 -654 -34 -48 -83 -118 -109 -157 -26 -38
-73 -106 -104 -150 -82 -115 -194 -317 -228 -410 -32 -87 -65 -234 -87 -390
-11 -76 -13 -167 -9 -380 4 -256 3 -287 -15 -357 -40 -154 -114 -244 -219
-266 -48 -10 -50 -25 -7 -45 44 -21 69 -21 129 -1 88 30 153 118 185 250 26
107 45 274 37 327 -4 24 -7 135 -7 248 1 159 5 225 19 299 27 133 92 321 145
415 53 93 127 213 142 229 6 6 40 52 75 101 35 50 74 101 86 115 105 118 331
512 414 721 18 46 43 107 56 136 13 28 24 55 24 58 0 14 194 459 229 528 21
39 71 135 111 212 72 140 137 250 235 400 28 44 64 100 79 125 15 25 40 63 56
85 17 22 47 65 68 95 35 50 290 400 297 409 2 1 9 -17 15 -40 11 -44 56 -149
64 -149 2 0 3 51 2 113 -2 209 45 354 188 575 27 40 45 76 42 79 -19 20 -162
-119 -215 -209 l-31 -53 5 49 c3 27 10 69 17 95 25 105 147 326 252 460 28 36
74 101 103 145 28 45 62 95 76 111 42 51 139 215 135 227 -3 7 -49 -33 -104
-87z"/>
<path d="M4590 10400 c-60 -112 -74 -330 -30 -454 33 -91 99 -165 183 -205 69
-32 128 -45 157 -36 15 5 2 15 -59 46 -210 105 -298 327 -235 594 7 33 14 63
14 68 0 15 -20 6 -30 -13z"/>
<path d="M6500 10380 c0 -5 5 -10 10 -10 6 0 10 5 10 10 0 6 -4 10 -10 10 -5
0 -10 -4 -10 -10z"/>
<path d="M6470 10370 c0 -5 5 -10 10 -10 6 0 10 5 10 10 0 6 -4 10 -10 10 -5
0 -10 -4 -10 -10z"/>
<path d="M4403 10303 c-4 -15 -8 -66 -8 -113 0 -89 13 -129 58 -177 32 -36 36
-28 16 34 -23 68 -39 161 -39 225 0 54 -16 72 -27 31z"/>
<path d="M3956 10280 c-14 -17 -37 -67 -51 -111 -39 -123 -31 -228 20 -283 34
-36 58 -36 44 2 -6 15 -13 70 -16 122 -5 92 -3 108 36 258 12 44 -2 49 -33 12z"/>
<path d="M4732 10263 c-4 -10 -7 -67 -7 -128 1 -93 4 -118 23 -160 46 -100
150 -195 215 -195 28 0 26 3 -52 86 -117 123 -164 230 -164 371 0 46 -4 53
-15 26z"/>
<path d="M4059 10109 c-21 -39 -37 -178 -29 -243 11 -79 27 -124 67 -180 43
-61 86 -86 146 -86 50 0 62 15 24 29 -32 12 -92 81 -121 139 -38 75 -56 160
-56 266 0 96 -8 116 -31 75z"/>
<path d="M7190 9955 c0 -3 16 -38 36 -77 50 -99 104 -270 111 -349 6 -69 -3
-159 -16 -159 -4 0 -12 36 -19 80 -6 43 -20 96 -31 118 -31 62 -120 192 -131
192 -18 0 -10 -45 22 -120 48 -116 58 -164 58 -298 0 -121 -1 -131 -67 -447
-6 -29 -6 -30 18 -14 26 17 127 156 128 177 2 28 19 9 30 -34 27 -108 108
-218 198 -271 52 -30 138 -35 174 -9 22 15 22 16 3 22 -104 35 -174 94 -243
208 -89 147 -102 238 -50 346 73 151 42 334 -87 516 -55 79 -134 148 -134 119z"/>
<path d="M5565 9868 c10 -108 63 -210 129 -253 l29 -19 -13 24 c-7 13 -32 77
-56 142 -50 136 -70 178 -85 178 -8 0 -9 -23 -4 -72z"/>
<path d="M5734 9765 c-13 -52 29 -200 81 -280 19 -30 39 -55 45 -55 13 0 13
-2 -4 51 -8 24 -33 104 -56 177 -23 72 -46 132 -51 132 -5 0 -11 -11 -15 -25z"/>
<path d="M5330 9760 c0 -11 20 -55 45 -98 66 -115 107 -246 114 -367 6 -99 6
-100 22 -70 53 98 21 297 -69 428 -72 105 -112 143 -112 107z"/>
<path d="M4400 9642 c0 -125 64 -294 150 -394 48 -56 154 -133 210 -153 48
-17 140 -27 140 -15 0 5 -30 25 -66 45 -37 21 -78 47 -93 59 -77 64 -157 148
-196 207 -48 73 -108 211 -119 272 -10 57 -26 44 -26 -21z"/>
<path d="M5896 9612 c-8 -14 34 -144 69 -212 24 -47 95 -123 95 -102 0 25 -44
147 -72 202 -37 73 -82 128 -92 112z"/>
<path d="M6045 9538 c12 -57 101 -198 125 -198 25 0 -44 149 -95 203 -33 35
-38 34 -30 -5z"/>
<path d="M4750 9433 c0 -32 74 -130 176 -235 55 -57 115 -124 132 -150 42 -61
78 -157 87 -232 11 -95 23 -109 45 -55 25 60 -5 229 -56 307 -44 70 -126 160
-203 224 -47 39 -103 90 -124 114 -42 47 -57 54 -57 27z"/>
<path d="M3632 9349 c-51 -52 -93 -137 -117 -234 -21 -86 -16 -247 11 -316 19
-50 51 -89 72 -89 10 0 12 7 8 23 -23 80 -37 183 -38 280 -1 92 21 174 79 290
19 38 33 73 31 79 -2 5 -23 -10 -46 -33z"/>
<path d="M7051 9260 c2 -184 -13 -247 -103 -442 -43 -92 -51 -119 -55 -188 -5
-62 -2 -90 11 -125 17 -43 68 -95 94 -95 15 0 15 -1 -2 46 -22 65 -29 158 -16
217 7 28 36 102 65 162 62 129 81 217 72 332 -5 73 -38 196 -59 218 -5 6 -8
-45 -7 -125z"/>
<path d="M6546 9348 c4 -7 17 -27 29 -44 40 -54 93 -167 115 -249 25 -88 33
-248 20 -390 -4 -44 -6 -81 -5 -83 2 -2 11 12 22 30 38 66 48 119 48 253 0
138 -23 252 -67 340 -25 48 -130 155 -153 155 -10 0 -14 -5 -9 -12z"/>
<path d="M5728 9325 c-9 -10 3 -90 23 -151 46 -142 161 -280 284 -342 38 -19
96 -27 95 -13 -1 3 -33 29 -72 56 -116 82 -213 206 -283 360 -23 52 -44 92
-47 90z"/>
<path d="M3799 9292 c-79 -82 -141 -195 -159 -290 -16 -80 -8 -232 16 -292 38
-99 147 -220 197 -220 9 0 17 2 17 4 0 3 -22 40 -48 83 -91 149 -125 248 -123
365 2 89 28 170 90 278 28 48 51 90 51 94 0 12 -16 4 -41 -22z"/>
<path d="M5331 9040 c0 -184 -38 -335 -118 -462 -20 -32 -21 -38 -7 -38 26 0
84 68 114 135 71 156 84 393 25 470 -13 18 -14 8 -14 -105z"/>
<path d="M6514 9099 c17 -75 46 -322 46 -395 0 -47 -7 -133 -17 -191 -19 -126
-11 -207 31 -295 48 -102 144 -188 230 -208 52 -11 93 21 43 34 -72 18 -166
131 -227 275 l-30 69 18 89 c23 121 23 353 -1 442 -21 77 -64 176 -84 193 -12
10 -13 7 -9 -13z"/>
<path d="M3903 8963 c-37 -89 -48 -147 -48 -254 0 -105 0 -106 44 -194 51
-103 114 -171 195 -209 30 -14 72 -26 93 -26 l38 1 -45 40 c-113 101 -142 133
-184 205 -72 124 -97 266 -69 409 15 83 15 75 4 75 -5 0 -17 -21 -28 -47z"/>
<path d="M5666 8823 c10 -82 48 -189 90 -252 20 -29 91 -110 158 -180 124
-128 175 -201 196 -281 12 -41 14 -57 19 -100 1 -11 7 -8 22 10 18 21 20 34
16 90 -6 76 -34 156 -73 208 -16 20 -81 91 -144 157 -127 131 -176 197 -239
323 -23 45 -44 82 -47 82 -3 0 -2 -26 2 -57z"/>
<path d="M5483 8829 c-37 -45 -37 -178 0 -279 44 -120 107 -186 232 -241 44
-20 155 -38 155 -26 0 3 -35 27 -77 53 -189 117 -276 247 -292 438 -5 56 -8
66 -18 55z"/>
<path d="M7280 8775 c0 -8 38 -64 84 -125 46 -61 97 -137 114 -168 79 -152
108 -313 86 -491 -10 -84 -23 -97 -24 -23 0 78 -22 156 -66 242 -33 63 -117
170 -134 170 -4 0 8 -36 27 -81 62 -142 85 -255 85 -409 -1 -130 -10 -208 -31
-260 -8 -21 -10 -13 -10 43 -2 132 -50 298 -101 342 l-23 20 6 -30 c3 -16 13
-61 21 -100 33 -148 11 -432 -43 -568 -37 -93 -81 -181 -87 -175 -2 3 3 40 12
84 20 96 15 269 -9 327 -9 20 -18 37 -20 37 -3 0 -4 -19 -4 -42 3 -148 -45
-391 -119 -606 -25 -74 -43 -137 -39 -140 14 -14 127 158 141 214 5 20 9 22
20 13 12 -9 18 -8 29 7 8 10 15 23 15 28 0 5 2 7 5 4 3 -2 -22 -84 -55 -181
-108 -320 -126 -431 -83 -527 38 -86 115 -149 181 -150 30 0 28 11 -7 44 -16
16 -39 51 -51 78 -53 124 -39 212 103 633 30 88 60 187 67 220 24 122 34 152
77 232 43 79 61 126 68 168 1 11 7 38 13 60 6 22 13 64 17 93 6 48 33 92 55
92 10 0 48 90 65 155 18 69 14 178 -11 300 -17 85 -53 166 -110 246 l-34 48
33 -6 c17 -3 34 -6 37 -6 19 -3 80 16 90 28 11 13 7 15 -24 15 -45 0 -136 36
-235 94 -99 58 -131 71 -131 51z"/>
<path d="M4153 8684 c13 -140 102 -272 285 -423 102 -84 177 -231 189 -369 6
-69 19 -76 39 -21 17 47 17 136 -1 195 -23 78 -69 138 -210 279 -155 154 -209
223 -259 328 -21 42 -40 77 -43 77 -3 0 -3 -30 0 -66z"/>
<path d="M6350 8595 c0 -4 7 -20 16 -37 9 -17 25 -72 35 -122 37 -181 17 -422
-46 -547 -30 -60 -30 -59 -7 -59 23 0 64 43 90 96 50 99 73 282 53 412 -13 82
-54 180 -95 230 -25 29 -46 41 -46 27z"/>
<path d="M3051 8365 c-52 -108 -116 -297 -132 -389 -11 -65 -6 -151 10 -160 4
-3 15 30 25 72 61 268 55 245 116 439 18 56 30 108 28 115 -3 7 -24 -28 -47
-77z"/>
<path d="M3627 8233 c-30 -57 -76 -244 -89 -355 -10 -99 -10 -118 7 -185 21
-83 36 -80 33 8 -5 123 21 336 58 482 18 70 13 94 -9 50z"/>
<path d="M4730 8187 c0 -39 29 -123 72 -210 50 -100 164 -219 248 -260 68 -33
162 -57 190 -50 18 5 10 12 -46 38 -156 72 -337 266 -423 453 -26 56 -41 66
-41 29z"/>
<path d="M3127 8126 c-59 -90 -93 -311 -66 -435 10 -47 39 -92 39 -60 -1 134
13 334 29 414 10 55 18 101 16 103 -1 1 -9 -8 -18 -22z"/>
<path d="M5070 8073 c0 -4 18 -36 39 -72 26 -43 100 -127 211 -241 94 -96 195
-208 225 -250 78 -111 135 -255 135 -345 0 -37 1 -38 18 -22 14 15 17 35 16
115 -1 90 -4 103 -41 190 -67 153 -145 244 -378 442 -82 70 -163 142 -179 159
-28 30 -46 39 -46 24z"/>
<path d="M6610 7946 c0 -2 14 -35 31 -73 97 -214 130 -348 131 -531 1 -68 5
-125 9 -127 18 -12 42 85 46 190 8 183 -36 335 -132 462 -37 49 -85 94 -85 79z"/>
<path d="M3389 7813 c-34 -89 -44 -153 -44 -278 1 -71 4 -139 9 -150 14 -38
25 7 31 126 7 167 15 270 21 302 3 15 3 27 0 27 -4 0 -11 -12 -17 -27z"/>
<path d="M5873 7686 c10 -25 36 -159 43 -217 11 -99 -25 -288 -80 -411 -13
-29 32 -9 59 27 60 78 89 264 66 415 -12 79 -62 200 -82 200 -6 0 -9 -7 -6
-14z"/>
<path d="M6160 7625 c0 -4 18 -63 40 -132 60 -187 67 -297 34 -512 -8 -53 6
-50 35 7 55 108 56 329 2 472 -25 66 -81 162 -98 168 -7 2 -13 1 -13 -3z"/>
<path d="M6585 7442 c7 -27 16 -78 20 -113 4 -35 9 -68 12 -72 11 -19 3 -262
-12 -349 -30 -174 -90 -347 -160 -458 -18 -30 -32 -56 -30 -58 2 -2 17 -1 34
3 76 16 184 238 227 464 24 130 22 346 -5 445 -21 79 -68 177 -88 183 -7 3 -6
-14 2 -45z"/>
<path d="M3135 7328 c-9 -13 -26 -54 -38 -93 -19 -60 -22 -93 -22 -225 0 -170
16 -251 60 -306 31 -38 38 -28 20 27 -43 130 -43 464 1 602 7 24 -2 21 -21 -5z"/>
<path d="M6930 7244 c0 -150 -45 -326 -128 -504 -21 -47 -44 -101 -51 -121
-16 -50 -20 -136 -9 -178 14 -50 58 -118 85 -130 35 -16 39 7 11 60 -19 37
-23 59 -22 129 1 79 4 92 48 190 93 203 126 320 126 445 0 91 -12 143 -40 177
l-19 23 -1 -91z"/>
<path d="M6087 7100 c-8 -142 -22 -239 -48 -335 -23 -85 -23 -82 2 -59 70 63
117 272 94 411 -10 55 -25 103 -34 103 -4 0 -11 -54 -14 -120z"/>
<path d="M3552 7043 c-5 -10 -24 -67 -41 -128 -73 -252 -150 -429 -219 -506
-40 -45 -42 -49 -21 -49 32 0 93 44 122 89 88 133 166 366 175 519 5 91 1 108
-16 75z"/>
<path d="M3237 6919 c-24 -74 -22 -162 5 -210 19 -34 45 -56 55 -46 2 2 -4 21
-13 43 -12 28 -17 71 -18 151 0 62 -4 113 -7 113 -3 0 -13 -23 -22 -51z"/>
<path d="M5156 6898 c3 -35 10 -83 16 -108 17 -82 21 -233 8 -325 -23 -167
-73 -294 -146 -375 -37 -40 -33 -25 -79 -350 -7 -52 -23 -160 -34 -240 -35
-241 -39 -308 -38 -755 0 -396 5 -578 21 -775 3 -41 8 -133 11 -205 8 -225 15
-337 26 -425 14 -108 63 -305 95 -384 33 -79 120 -193 187 -244 82 -64 144
-133 168 -187 31 -68 38 -198 14 -244 -9 -18 -18 -31 -20 -29 -1 1 -8 40 -14
85 -17 130 -118 319 -152 286 -10 -10 -5 -28 24 -90 52 -114 65 -167 61 -253
-4 -69 -7 -77 -35 -103 -23 -21 -39 -27 -62 -25 l-32 3 -6 115 c-7 123 -26
199 -65 267 -27 47 -78 88 -99 79 -21 -8 -19 -20 9 -53 47 -57 68 -137 74
-287 4 -105 2 -140 -8 -146 -19 -12 -136 -3 -199 16 -84 24 -109 46 -116 102
-26 181 -99 352 -152 352 -19 0 -17 -16 17 -116 17 -50 34 -126 39 -174 4 -47
10 -92 12 -100 11 -41 -134 -12 -217 43 -180 118 -224 241 -239 662 -10 293
-30 457 -71 603 -9 28 -20 52 -25 52 -12 0 -11 12 -18 -150 l-6 -145 -22 37
c-12 21 -27 55 -33 76 -14 55 -12 234 4 322 7 41 12 77 10 79 -15 17 -79 -135
-97 -230 -10 -57 -12 -60 -18 -34 -23 106 2 253 65 386 20 42 36 90 36 109 l0
32 -77 -79 c-89 -91 -150 -121 -226 -109 -119 19 -200 101 -341 343 -26 46
-52 86 -57 89 -16 9 -10 -32 15 -105 52 -153 185 -330 279 -371 61 -27 140
-36 191 -21 22 6 41 9 43 8 1 -2 -2 -19 -8 -38 -33 -113 -27 -260 16 -336 22
-40 22 -43 5 -43 -28 0 -116 36 -150 62 -17 12 -35 37 -42 55 -14 39 -24 42
-32 10 -9 -36 10 -87 46 -124 36 -37 26 -42 -41 -19 -58 21 -148 85 -205 145
-26 29 -50 51 -52 48 -8 -8 17 -72 47 -118 33 -52 86 -99 147 -130 l37 -19
-40 6 c-97 14 -265 91 -265 122 0 36 -75 154 -130 204 -151 139 -200 178 -219
178 -12 0 -21 -3 -21 -6 0 -21 42 -76 134 -174 74 -78 112 -129 130 -173 l16
-39 -61 56 c-105 98 -301 177 -532 215 -169 28 -165 27 -129 65 88 92 160 239
181 367 14 86 19 178 11 209 -6 22 -9 17 -25 -35 -51 -171 -78 -252 -102 -298
-39 -78 -107 -177 -151 -220 -35 -35 -43 -38 -75 -32 l-36 7 64 75 c67 79 106
158 104 216 0 18 -3 25 -6 17 -12 -30 -106 -140 -172 -202 -67 -62 -130 -105
-286 -196 -73 -43 -78 -47 -51 -50 47 -6 155 17 208 44 l50 25 76 -25 c42 -14
109 -30 147 -36 197 -31 341 -72 465 -135 131 -66 212 -128 254 -195 38 -60
70 -186 70 -277 1 -77 -1 -83 -28 -112 -45 -47 -53 -41 -61 47 -9 92 -29 151
-89 252 -53 91 -97 140 -125 140 -31 0 -26 -22 18 -93 101 -158 138 -297 107
-395 -10 -30 -69 -52 -144 -52 -112 0 -110 -1 -109 93 0 45 -5 106 -13 136
-15 62 -68 156 -114 202 -35 35 -99 68 -133 69 -33 0 -40 -21 -12 -39 59 -37
125 -117 153 -186 36 -90 46 -194 21 -231 -15 -24 -22 -26 -61 -21 -69 7 -198
66 -258 116 -30 25 -77 73 -104 107 -102 124 -251 218 -542 340 -141 60 -165
90 -148 185 8 47 20 69 73 135 35 43 62 80 60 82 -7 7 -95 -50 -134 -88 -46
-45 -72 -91 -95 -172 -44 -155 -1 -212 224 -301 131 -51 283 -125 350 -170 25
-17 93 -78 151 -137 70 -69 121 -112 150 -124 24 -10 58 -25 74 -32 67 -28
189 -53 260 -53 41 0 79 -2 84 -5 4 -3 48 -6 97 -6 105 -1 218 25 308 69 132
67 166 125 167 296 1 96 -7 135 -47 240 -8 19 -7 19 18 3 81 -53 257 -77 307
-41 23 16 23 17 5 24 -10 5 6 5 36 1 82 -10 170 -6 218 11 l43 15 24 -38 c31
-49 92 -110 109 -110 15 0 21 -79 31 -397 6 -187 13 -237 45 -334 40 -117 123
-227 218 -287 69 -44 178 -73 265 -72 55 1 88 -4 140 -23 37 -14 70 -25 72
-25 3 0 33 -3 68 -7 41 -4 87 -1 137 9 41 9 95 16 120 16 25 0 66 8 93 17 64
23 205 137 231 187 27 53 31 136 12 219 -27 115 -57 161 -196 297 -70 69 -139
145 -153 170 -42 73 -125 359 -111 382 4 6 30 7 73 2 69 -8 261 -16 416 -17
149 -1 247 42 290 127 58 116 9 293 -114 411 -92 88 -169 121 -351 150 -138
22 -313 55 -319 61 -2 2 5 14 16 27 20 22 64 96 93 155 l16 33 12 -40 c15 -49
71 -111 101 -111 22 0 28 14 10 26 -35 21 -79 201 -79 324 0 44 -3 80 -7 80
-5 0 -18 -31 -30 -69 -29 -92 -102 -245 -143 -300 -30 -41 -33 -43 -43 -25
-13 22 -16 622 -5 848 10 219 18 350 22 387 24 207 37 545 23 615 -8 40 -7 42
28 64 75 46 140 163 169 305 20 94 15 319 -8 395 -31 99 -68 190 -77 190 -6 0
-7 -25 -3 -62z m-51 -2949 c28 -10 104 -25 170 -34 156 -20 196 -31 277 -72
82 -43 149 -109 184 -182 35 -75 41 -121 20 -176 -19 -50 -36 -59 -36 -19 0
41 -22 116 -48 164 -46 84 -143 170 -193 170 -39 0 -45 -16 -12 -34 33 -17
116 -101 133 -136 33 -63 52 -201 31 -214 -17 -11 -99 -19 -124 -12 -20 5 -31
22 -58 87 -57 143 -147 238 -226 239 -23 0 -33 -5 -33 -15 0 -8 4 -15 9 -15
18 0 110 -91 134 -133 23 -39 61 -147 54 -153 -2 -2 -37 -4 -78 -5 -84 -2
-221 18 -244 35 -11 8 -17 37 -20 111 -3 55 -8 127 -10 160 -3 33 -8 107 -12
164 -6 100 -5 104 13 96 10 -4 42 -16 69 -26z"/>
<path d="M5427 6772 c-6 -157 -20 -238 -57 -340 -27 -71 -77 -170 -108 -209
-24 -33 -24 -33 -3 -33 53 0 94 52 158 200 52 118 73 227 67 340 -4 84 -26
184 -43 194 -4 3 -11 -65 -14 -152z"/>
<path d="M6378 6792 c-45 -207 -86 -317 -206 -554 -2 -5 2 -8 9 -8 23 0 97 88
127 152 62 131 96 265 108 420 11 140 -7 135 -38 -10z"/>
<path d="M3669 6745 c-20 -33 -57 -102 -83 -153 -60 -122 -101 -184 -164 -253
-29 -31 -52 -60 -52 -63 0 -16 47 -3 79 21 50 38 53 41 106 118 87 127 162
306 153 366 -3 21 -8 16 -39 -36z"/>
<path d="M2424 6573 c-21 -49 -84 -141 -123 -177 -35 -34 -32 -49 7 -35 37 13
109 107 133 174 22 62 23 75 8 75 -5 0 -17 -17 -25 -37z"/>
<path d="M3762 6557 c-39 -70 -215 -288 -281 -350 -28 -26 -78 -61 -112 -77
-68 -32 -93 -58 -77 -77 34 -41 180 23 279 121 70 70 181 233 216 318 42 105
24 152 -25 65z"/>
<path d="M4997 6465 c-37 -157 -102 -351 -173 -518 -31 -71 -53 -131 -51 -133
10 -10 75 79 124 168 84 152 143 348 143 472 0 109 -19 114 -43 11z"/>
<path d="M2490 6399 c0 -7 -11 -27 -25 -45 -30 -39 -99 -64 -265 -94 -157 -28
-197 -43 -279 -101 -89 -62 -136 -124 -165 -217 -13 -39 14 -24 99 56 130 123
276 185 416 175 144 -10 264 -65 438 -203 116 -91 170 -152 215 -243 35 -71
86 -209 86 -231 0 -6 -20 26 -44 71 -72 137 -160 234 -271 300 -69 41 -155 76
-155 65 0 -5 44 -47 98 -93 119 -104 222 -236 314 -401 73 -131 127 -282 174
-483 24 -100 26 -124 21 -258 -3 -88 -1 -145 4 -140 14 14 49 119 60 177 13
74 -21 396 -54 501 -14 44 -28 105 -32 135 -27 236 -74 371 -171 493 -59 74
-251 239 -329 282 -57 32 -197 86 -260 100 l-30 7 40 12 c61 19 100 42 119 70
18 28 21 62 6 71 -5 3 -10 1 -10 -6z"/>
<path d="M6507 6325 c-3 -16 -8 -46 -11 -65 -19 -133 -63 -283 -132 -446 -71
-171 -91 -283 -59 -343 24 -48 72 -81 116 -81 42 0 49 9 22 31 -26 22 -53 90
-53 135 0 63 17 100 68 140 141 113 227 241 271 404 25 92 36 186 23 194 -5 3
-33 -45 -62 -107 -94 -200 -110 -231 -162 -310 -28 -43 -52 -76 -53 -75 -2 2
10 42 25 90 16 49 33 116 39 150 13 85 7 235 -11 278 l-15 35 -6 -30z"/>
<path d="M7004 6268 c9 -48 65 -124 108 -148 30 -17 44 -20 66 -12 l27 10 -54
48 c-30 27 -73 68 -94 92 -48 51 -62 53 -53 10z"/>
<path d="M5506 6238 c-48 -131 -67 -295 -47 -414 12 -70 55 -174 72 -174 13 0
11 11 -7 61 -25 69 -29 243 -10 408 9 79 19 148 22 153 3 4 1 8 -5 8 -5 0 -16
-19 -25 -42z"/>
<path d="M3975 6148 c-32 -51 -73 -112 -92 -135 -18 -23 -33 -44 -33 -47 0 -3
11 -6 25 -6 19 0 36 15 71 63 25 34 56 80 69 102 26 45 43 115 27 115 -5 0
-35 -42 -67 -92z"/>
<path d="M6993 6164 c-6 -10 -14 -62 -17 -114 -4 -52 -11 -124 -16 -160 -25
-183 -70 -555 -75 -625 -4 -44 -8 -87 -10 -95 -2 -8 -7 -51 -10 -95 -3 -44 -7
-102 -10 -130 -10 -112 -14 -846 -5 -945 31 -328 135 -589 264 -665 44 -26 55
-30 176 -66 41 -12 97 -33 124 -47 77 -38 161 -128 204 -219 32 -68 37 -87 37
-153 0 -72 -18 -140 -36 -140 -5 0 -9 15 -9 33 0 50 -35 172 -63 220 -50 85
-156 172 -180 148 -8 -8 4 -32 42 -86 68 -97 101 -180 107 -264 4 -60 2 -69
-18 -88 -42 -37 -153 -54 -210 -30 -35 15 -35 15 -40 89 -6 91 -38 167 -99
233 -63 69 -138 103 -186 84 -25 -9 -24 -10 34 -48 98 -63 150 -150 160 -269
7 -87 6 -87 -117 -86 -229 3 -414 103 -495 267 -28 58 -38 95 -50 187 -19 143
-27 174 -48 178 -12 2 -20 -12 -33 -57 -9 -34 -20 -61 -25 -61 -21 0 -41 53
-44 117 -15 267 -36 383 -95 525 -46 112 -48 125 -56 313 -6 173 -6 165 -15
165 -16 0 -29 -77 -36 -199 -5 -100 -8 -120 -17 -100 -16 37 -11 346 8 473 20
138 20 149 -4 106 -26 -47 -68 -182 -76 -247 -4 -29 -10 -53 -15 -53 -10 0
-12 47 -10 220 2 128 14 236 38 322 22 80 12 89 -29 27 -40 -61 -82 -170 -92
-241 -4 -27 -11 -48 -16 -48 -11 0 -25 134 -25 240 0 75 4 93 32 150 17 36 41
74 53 85 57 51 132 190 170 315 l23 75 13 -40 c17 -47 47 -75 80 -75 26 0 32
15 10 23 -7 3 -24 27 -37 54 -29 60 -36 217 -14 303 16 58 21 280 7 280 -10 0
-36 -82 -52 -165 -61 -308 -213 -613 -425 -855 -161 -183 -175 -201 -175 -210
0 -6 2 -10 5 -10 19 0 170 83 200 111 21 18 21 18 20 -99 0 -130 17 -204 60
-263 33 -46 49 -81 75 -169 12 -41 35 -95 50 -120 22 -36 29 -61 33 -125 8
-106 35 -189 89 -272 25 -37 50 -81 56 -98 20 -53 45 -216 57 -370 12 -151 38
-205 109 -229 l40 -14 25 -105 c37 -148 95 -227 226 -309 124 -76 364 -121
519 -97 39 7 69 6 91 -1 144 -48 436 34 499 140 30 50 28 209 -3 295 -46 128
-151 264 -246 320 -22 13 -93 40 -158 59 -140 43 -145 45 -185 90 -50 57 -79
114 -121 241 -69 207 -70 220 -66 765 2 267 7 512 9 545 3 33 8 85 11 115 3
30 7 84 10 120 3 36 19 170 36 299 29 232 38 430 24 522 -4 26 -17 64 -30 85
-21 34 -23 36 -32 18z"/>
<path d="M5921 6055 c-1 -38 6 -139 14 -223 18 -171 9 -315 -24 -422 -11 -33
-16 -60 -11 -60 4 0 23 33 43 73 65 130 73 332 23 549 -35 152 -45 169 -45 83z"/>
<path d="M3615 6048 c-26 -29 -66 -79 -88 -110 -22 -32 -42 -56 -44 -54 -2 1
6 24 18 50 11 26 19 57 17 69 -4 20 -8 18 -50 -26 -92 -96 -167 -301 -155
-428 5 -60 49 -158 55 -124 4 16 133 147 139 141 2 -1 -11 -30 -27 -64 -40
-83 -55 -181 -40 -264 10 -56 52 -154 73 -169 4 -3 16 -21 26 -40 10 -19 33
-43 51 -53 l33 -19 -7 34 c-28 147 -29 177 -16 265 12 78 26 130 56 209 5 16
0 13 -25 -10 -34 -31 -101 -158 -101 -191 0 -10 -5 -26 -11 -34 -7 -11 -9 15
-6 90 4 95 8 113 44 195 21 50 60 126 86 169 l48 78 -43 -7 c-57 -9 -142 -55
-203 -110 -27 -24 -53 -45 -57 -45 -23 -1 41 112 131 230 56 74 111 155 122
180 11 25 25 53 30 62 25 48 -2 36 -56 -24z"/>
<path d="M2115 5931 c-16 -4 -43 -15 -60 -24 l-30 -16 78 -2 c42 -1 80 -2 85
-4 4 -1 25 -5 47 -10 134 -27 291 -150 372 -289 20 -36 41 -66 46 -66 16 0 -4
93 -31 145 -39 75 -157 187 -233 223 -94 45 -199 61 -274 43z"/>
<path d="M3962 5707 c-27 -29 -76 -128 -96 -196 -17 -58 -22 -171 -7 -171 4 0
14 28 20 63 18 93 50 195 83 261 32 64 32 78 0 43z"/>
<path d="M5161 5653 c1 -38 6 -84 11 -103 24 -96 39 -260 34 -355 l-7 -100 21
24 c53 62 69 227 36 375 -17 75 -78 226 -91 226 -3 0 -5 -30 -4 -67z"/>
<path d="M1684 5611 c-50 -30 -122 -121 -163 -206 -52 -106 -92 -305 -61 -305
5 0 14 19 20 43 24 91 62 191 99 265 42 83 125 202 141 202 5 0 10 5 10 10 0
14 -11 12 -46 -9z"/>
<path d="M5726 5588 c-3 -7 -7 -53 -11 -103 -6 -92 -19 -170 -35 -215 -55
-157 -126 -303 -215 -440 -126 -195 -150 -245 -163 -349 -22 -157 42 -243 172
-233 18 2 17 6 -11 35 -99 104 -79 214 82 467 70 110 113 197 150 303 38 113
75 302 75 383 0 91 -30 196 -44 152z"/>
<path d="M3951 5488 c-40 -86 -52 -217 -28 -287 20 -58 32 -47 29 26 -2 37 4
113 13 169 21 127 16 157 -14 92z"/>
<path d="M5060 5398 c0 -13 7 -68 15 -123 8 -55 15 -140 15 -188 0 -93 11
-108 37 -56 29 55 6 307 -32 365 -20 30 -35 31 -35 2z"/>
<path d="M1651 5276 c-42 -60 -66 -127 -81 -218 -14 -85 -8 -210 9 -216 6 -2
9 -8 5 -13 -3 -5 -1 -9 5 -9 7 0 10 33 9 88 -1 101 22 224 63 334 16 43 27 78
24 78 -2 0 -18 -20 -34 -44z"/>
<path d="M5462 5162 c-72 -145 -151 -260 -244 -358 -38 -39 -68 -74 -68 -77 0
-14 60 2 91 23 107 73 241 282 274 424 29 124 14 121 -53 -12z"/>
<path d="M2850 5161 c0 -5 18 -53 39 -107 69 -172 104 -470 79 -666 -11 -85
-39 -202 -51 -213 -7 -7 -7 -4 -2 10 17 42 17 258 1 335 -15 69 -92 247 -129
295 -32 42 -30 -1 6 -103 48 -137 68 -246 66 -349 -5 -202 -50 -338 -165 -490
-56 -75 -56 -83 -1 -59 103 43 262 243 312 390 67 201 62 540 -10 732 -28 74
-87 188 -113 217 -16 18 -32 22 -32 8z"/>
<path d="M3719 5118 c-92 -125 -143 -300 -121 -418 14 -79 97 -244 149 -299
12 -13 31 -47 43 -76 l22 -53 -37 -79 c-36 -77 -87 -143 -112 -143 -21 0 -15
-17 14 -39 39 -31 64 -34 128 -16 135 40 203 165 250 463 13 79 -12 39 -60
-98 -50 -146 -119 -250 -188 -287 -34 -17 -46 -10 -25 14 35 40 98 186 133
308 69 244 96 349 92 365 -6 25 -147 -299 -147 -339 0 -28 -19 -6 -38 42 -29
72 -30 80 -37 182 -5 72 -2 109 14 184 12 52 19 96 17 98 -1 2 -15 -14 -30
-36 -36 -52 -75 -167 -79 -230 -1 -28 -5 -51 -9 -51 -4 0 -15 24 -23 54 -32
111 -13 258 55 416 16 40 28 75 26 77 -3 3 -19 -15 -37 -39z"/>
<path d="M6231 4951 c-21 -49 -29 -121 -13 -121 9 0 47 158 40 166 -3 2 -15
-18 -27 -45z"/>
<path d="M3330 4777 c0 -76 35 -202 73 -266 43 -72 111 -141 138 -141 23 0 23
0 -3 28 -58 60 -119 177 -159 305 -23 70 -43 127 -45 127 -2 0 -4 -24 -4 -53z"/>
<path d="M6251 4730 c-27 -62 -50 -182 -42 -220 4 -25 4 -25 17 6 17 41 56
232 52 253 -2 9 -14 -9 -27 -39z"/>
<path d="M2427 4583 c-2 -5 -5 -38 -5 -75 -3 -147 -65 -299 -167 -405 -36 -37
-65 -69 -65 -70 0 -2 12 -3 26 -3 36 0 108 52 143 104 50 72 99 195 106 267 9
89 -18 218 -38 182z"/>
<path d="M1605 4497 c-48 -173 -76 -220 -174 -295 -29 -23 -31 -27 -15 -33 42
-15 142 65 182 146 35 70 55 226 31 240 -3 3 -14 -23 -24 -58z"/>
<path d="M1230 4270 c-199 -101 -208 -107 -296 -195 -106 -105 -141 -155 -178
-249 -45 -112 -34 -245 21 -263 7 -3 16 20 23 54 34 164 78 251 191 382 70 80
119 118 259 201 41 25 77 48 78 52 2 5 9 8 16 8 18 0 98 86 94 101 -2 10 -63
-17 -208 -91z"/>
<path d="M3175 4367 c-10 -25 13 -168 42 -261 37 -116 78 -197 135 -260 57
-64 112 -99 181 -117 73 -18 81 1 15 38 -116 67 -209 179 -272 331 -30 72 -43
109 -79 237 -11 37 -17 46 -22 32z"/>
<path d="M3105 4197 c-4 -16 -5 -69 -3 -118 5 -75 11 -100 42 -166 81 -169
179 -256 329 -287 41 -9 32 9 -15 30 -61 27 -147 102 -201 174 -70 93 -107
179 -127 294 -14 83 -18 96 -25 73z"/>
<path d="M1816 4052 c-4 -7 -48 -32 -98 -57 -166 -84 -226 -138 -284 -258 -26
-54 -34 -85 -34 -125 0 -30 -7 -82 -16 -116 -9 -33 -14 -80 -11 -103 5 -44 36
-96 68 -113 18 -10 19 -8 16 36 -1 26 5 69 14 97 11 33 15 67 12 100 -3 31 2
76 12 116 39 149 108 244 243 334 77 51 96 70 90 89 -3 9 -6 9 -12 0z"/>
<path d="M1115 3964 c-85 -56 -114 -82 -170 -155 -99 -128 -145 -256 -145
-406 0 -120 38 -219 127 -330 57 -72 129 -127 209 -160 31 -12 78 -36 103 -53
112 -71 255 -109 414 -110 111 0 121 2 165 27 l46 28 -39 6 c-22 4 -74 10
-117 14 -112 9 -263 49 -345 91 -48 24 -92 57 -131 98 -67 69 -92 113 -117
204 -23 82 -16 242 14 320 12 28 18 52 13 52 -14 0 -73 -98 -88 -146 -8 -27
-17 -89 -21 -139 -5 -80 -3 -98 20 -164 15 -41 25 -76 24 -77 -7 -7 -91 108
-117 159 -39 79 -53 155 -48 262 8 151 87 313 216 443 99 100 97 107 -13 36z"/>
<path d="M1360 3126 c0 -24 39 -82 84 -123 88 -83 171 -113 356 -134 193 -20
311 -54 403 -115 55 -36 67 -32 47 16 -43 103 -257 190 -471 190 -73 0 -200
29 -266 61 -23 11 -65 40 -92 65 -44 40 -61 51 -61 40z"/>
</g>
</svg>
