<?xml version="1.0" encoding="UTF-8"?>
<svg id="Calque_2" data-name="Calque 2" xmlns="http://www.w3.org/2000/svg" viewBox="0 0 365.67 195.4" preserveAspectRatio="xMidYMid meet">
  <defs>
    <style>
      .cls-1 {
        fill: #f1877f;
      }

      .cls-1, .cls-2 {
        font-family: TimesNewRomanPSMT, 'Times New Roman';
        font-size: 43.58px;
      }

      .cls-3 {
        stroke: #f9cbc3;
        stroke-miterlimit: 10;
        stroke-width: .48px;
      }

      .cls-3, .cls-4 {
        fill: #f9cbc3;
      }

      .cls-5 {
        fill: #61544d;
      }

      .cls-2 {
        fill: #675352;
      }
    </style>
  </defs>
  <g id="Calque_1-2" data-name="Calque 1">
    <g>
      <path class="cls-3" d="m253.57,77.17c-3.49-.95-4.79-1.39-6.9-.85-1.03.26-1.83.32-3.38,1.33-1.13.74-1.37,1.06-3.7,2.82-1.99,1.5-2.46,1.75-3.13,1.93-.48.13-1.85.49-3.14-.14-1.04-.5-1.16-1.22-2.16-2.23-1.19-1.2-2.5-1.67-3.58-2.06-3.38-1.22-6.58-.35-9.35.4-.78.21-1.97.54-3.34,1.17-2.87,1.31-4.03,2.76-5.98,4.89,1.65,6.44,4.54,12.8,8.19,18.57,2.88-.82,10.29-6.82,14.69-6.82,2.92,0,4.55,1.18,3.85,3.66-.11.41,6.9-1.16,7.66-.2.7.88,5.11,2.25,1.21,5.06-3.98,2.86-11.11,5.88-16.98,10.8,1.3,1.09,3.51,2.25,4.96,2.12,1.15-.1,2.3,1.29,3.78,1.26.99-.02,2.67-.45,3.62-1.1,1-.68,2.8-.06,4.46-1.1,2.05-1.28,3.39-4.16,4.39-6.37,3.07-6.77,4.66-12.51,5.56-19.88.38-3.08.77-8.3.86-12.84-.55-.14-1.08-.28-1.58-.42Z"/>
      <path class="cls-3" d="m193.59,58.78c3.32-2.13,6.63-3.01,8.37-3.46,3.65-.94,5.27-.58,8.95-2.22,1.37-.61,1.77-.93,3.75-2.03,0,0,4.3-2.38,9.34-4.46,1.12-.46,2.38-.94,3.9-1.44.95-1.06,1.89-2.12,2.81-3.16,2.17-2.43,3.79-5.39,5.04-8.39,1.33-3.19,1.91-9.91.17-12.84-.71-1.2-3.17-3.7-3.78-4.95-1.08-2.24-1.49-6.01-3.33-9.06-1.84-3.05-3.21-5.93-6.74-6.41-1.52-.21-4.56-.16-5.97.44-.32.14-1.24.27-2.93,1.51-1.78,1.31-4.34,3.73-4.62,4.11-3.22,4.39-5.26,7.03-7.97,11.75-1.33,2.32-2,4.97-3.44,7.22-1.4,2.17-1.77,3.15-2.81,5.51-1.54,3.5-1.27,7.02-1.8,10.69-.5,3.49,0,7.05.21,10.58.14,2.21.3,4.48.85,6.6Z"/>
      <path class="cls-3" d="m141.66,50.82c.67,1.68,2.42,5.03,3.52,6.46,1.56,2.02,4.53,2.26,5.54,3.86.65,1.03,3.99,4.94,4.69,5.91.52.72,1.12,1.4,1.79,1.98,3.84-.47,5.02.3,9.26-.76,1.2-.3,1.66-.5,4.77-1.32.54-.14.89-.23,4.65-1.19,2.16-.55,3.25-.83,3.31-.84.09-.02.16-.03.25-.05.91-1.36,3.05-4.91,3.34-6.08,1.02-4.09,1.64-6.54,2.28-11.27.57-4.25,2.28-9.77,2.62-14.05.33-4.27-.07-8.68-1.83-12.59-1.51-3.35-3.94-6.2-5.75-9.4-1.23-2.17-1.77-6.68-3.77-8.18-2.37-1.77-5.02-1.66-7.81-.67s-4.74,2.76-6.97,4.7c-5.55,4.82-8.78,7.56-13.43,13.26-1.22,1.5-6.42,5.33-7.3,7.05-1.71,3.32-2.14,8.37-1.76,12.09.37,3.72,1.22,7.6,2.6,11.08Z"/>
      <path class="cls-3" d="m110.42,110.77c.6,1.84,1.07,3.16,2.11,4.79,1.57,2.45,3.46,3.99,5.83,5.24,3.2-1.71,6.77-3.5,10.78-5.34,8.58-3.94,12.61-5.84,17.52-5.72.49.01.98.03,1.47.04.3-.33.58-.66.86-.99,1.98-2.39,3.19-5.3,4.24-8.22.5-1.4.9-2.83,1.25-4.26-1.54-.42-2.93-.99-4.24-1.73-1.84-1.04-3.74-2.15-5.02-4.4-.71-1.24-1.45-2.54-1.17-4.02.13-.66.26-1.35.43-2.55.15-1.09.64-1.55.17-1.6-1.09-.11-2.5-.17-3.81-1.1-.18-.13-.93-1.08-.8-1.51.03-.09-.93-.34-1.09-.61-.52-.88-.78-1.34-.9-1.62-.07-.03.09-.35.11-.49.01-.09.13-.54.26-.24.44.22,2.33-.75,4.18-1.76,2.98-1.63,3.88-2.35,7.16-3.81.35-.16.68-.29.99-.42-.4-.73-.72-1.3-1.15-2.07-2.09-3.75-5.49-8.08-8.95-10.77-3.78-2.94-9.75-4.84-14.5-2.83-2.31.98-4.26,2.65-6.09,4.37-2.65,2.48-5.16,5.17-7.09,8.26-1.87,3.01-3.29,6.96-4.21,10.35-.67,2.46-1.19,4.84-1.68,7.34-.58,2.97-.81,8.08-.55,11.12.47,5.59,2.2,9.36,3.91,14.55Z"/>
      <g>
        <path class="cls-3" d="m178.37,115.51c2.71-1.51,6.7-2.74,9.37-3.29,1.57-.32,1.93-1.96,6.16-3.39,3.07-1.04,5.13-1.31,12.3-5.04-.29-.84-.55-1.71-.77-2.63-.53-2.24-1.96-8.44-2.41-10.7-.03-.17-.1-.34-.14-.51-2.41,1.82-5.28,3.62-7.47,4.12-.48.11-1.58.26-3.06.76-1.64.55-2.84,1.2-4.67,2.19-2.58,1.4-2.87,1.78-4.14,2.1-.76.19-1.29.21-3.42.19-3.63-.04-5.5-.07-8.06-.33-2.75-.28-3.59-.53-4.39-.9-.98-.46-1.64-.65-1.99-1.09-1.2,3.4-2.25,6.47-3.63,9.33-.64,1.33-1.52,2.74-2.57,4.15,5.81.56,10.38,1.41,12.54,2.54,1.29.68,4.03,3.8,6.36,2.51Z"/>
        <path class="cls-3" d="m228.39,129.45c-1.64.58-3.99,1.51-8.33,3.26-3.83,1.54-6.66,2.49-7.77,2.86-3.72,1.24-5.75,1.72-8.32,2.45-10.18,2.91-10.73,4.62-15.68,5.45-1.38.23-2.99.38-14.72-1.77-12.75-2.34-18.42-3.89-26.04-3.27-2.34.19-5.37.63-8.59,2.32-2.14,1.12-3.54,2.4-6.27,4.91-2.6,2.39-4.46,4.1-5.87,5.41.12.22.23.44.36.66,1.1,1.83,2.02,2.89,2.62,4.93.39,1.31-.26,8.54-.26,12.58,0,.8.05,1.63.42,2.34.58,1.13,1.52,2.18,2.68,2.71,1.82.84,3.72,1.77,5.66,1.26,1.75-.46,3.41-2.42,4.66-3.73,2.96-3.09,4.84-4.3,8.66-6.24,1.85-.94,4.85-1.86,6.92-1.89,3.32-.04,7.16,1.07,10.28,2.2,3.73,1.36,8.42,2.05,12.38,2.31,4.06.26,7.84-.61,11.65-2.03,3.06-1.13,4.26-2,7.44-2.69,2.41-.52,10.1.98,12.59,3.99,2.49,3,3.04,6.82,3,10.23-.01.97-.09,2.81.68,3.41.62.48,1.63.87,2.41.84,2.65-.09,3.92-1.01,6.08-2.55,2.16-1.54,5.04-5.53,4.97-8.18-.04-1.39-.16-2.12-.25-3.51-.22-3.28,1.61-6.3,3.02-9.27,2.38-5.03,3.07-10.41,2.12-15.9-.78-4.53-3.27-8.99-6.52-13.07Z"/>
        <path class="cls-4" d="m220.55,121.3c-.79.49-1.43,1-2.09,1.31.77-.21,1.65-.48,2.85-.62-.24-.22-.52-.48-.76-.69Z"/>
      </g>
      <g>
        <path class="cls-5" d="m90.29,183.23c6.14-6.03,12.91-11.37,19.22-17.22,6.25-5.92,12.98-11.32,19.25-17.19,3.21-2.86,6.03-6.4,9.92-8.43,8.16-3.75,17.23-2.29,25.72-.81,4.26.73,8.45,1.84,12.64,2.6,4.1.66,8.41,1.75,12.39.13,3.92-1.73,8.06-3.15,12.17-4.38,2.06-.62,4.09-1.31,6.22-1.85,2.08-.55,4.24-.65,6.26-1.36,3.77-1.91,7.99-3.24,11.96-4.74,4.02-1.58,8.26-2.61,12.44-3.59.8-.2,3.81-.79,4.56-1.29.43-.22.94-.53,1.03-.82.18-.49.05-1.2-.12-1.75-.65-1.18-2.14-1.75-3.34-2.28-4.32-1.55-9.02-.07-13.22,1.29-.27.1-.58.09-.84.1-3.76-.07-7.48.81-11.1,1.75,3.61-1.03,7.32-2.01,11.09-2.02.27-.02.52-.01.76-.1,5.18-1.88,11.62-3.79,16.45-.02,1,.73,1.32,2.07,1.01,3.29-.54,1.13-1.85,1.46-2.92,1.87-5.19,1.3-10.49,2.49-15.43,4.51-4.02,1.59-8.12,2.91-11.97,4.85-2.06.74-4.26.86-6.34,1.41-2.04.53-4.09,1.23-6.14,1.86-4.14,1.26-8.13,2.65-12.08,4.41-4.19,1.73-8.78.69-13.05-.05-4.27-.8-8.41-1.92-12.63-2.66-8.21-1.47-17.21-2.97-25.05.61-3.78,1.97-6.57,5.35-9.77,8.13-6.39,5.79-13.14,11.13-19.53,16.89-6.42,5.73-13.29,10.94-19.55,16.85h0Z"/>
        <path class="cls-5" d="m220.45,121.38c3.27-2.89,6.41-5.92,9.85-8.61,2.19-1.43,4.4-2.87,6.62-4.24,1.84-1.13,3.72-2.27,5.58-3.37.9-.66,2.39-1,2.99-1.92.54-1.37-1.38-2.58-2.44-2.99-5.88-1.53-11.64,2.27-15.98,5.88-2.2,1.5-4.8,2.09-7.12,3.42-3.07,1.57-5.94,3.47-8.53,5.81-1.45,1.2-3.35,1-5.01,1.68-1.63.58-3.2,1.33-4.77,2.1,1.5-.89,3.03-1.74,4.65-2.41,1.51-.74,3.46-.67,4.73-1.84,2.5-2.42,5.41-4.49,8.49-6.2,2.16-1.37,4.8-2.02,6.91-3.47,1.94-1.66,4.24-3.42,6.5-4.48,2.27-1.33,5.06-2.25,7.78-2.04,1.81,0,3.89.56,5.13,2.01,1.32,1.26,1.21,3.31-.44,4.15-4.97,2.69-9.84,5.56-14.67,8.48-3.51,2.56-6.8,5.41-10.26,8.04h0Z"/>
        <path class="cls-5" d="m235.48,99.5c.7-2.59-2.57-3.38-4.52-2.96-4.74.87-8.42,4.31-12.45,6.76-3.81,1.64-7.76,3.41-11.2,5.78,0,0-2.82,1.86-2.82,1.86-.88.66-2.12,1.27-3.24,1.42-4.18,1.27-8.08,3.93-11.94,6.03,3.75-2.64,7.32-5.4,11.72-6.97,1.13-.24,1.9-.68,2.84-1.39,3.58-2.61,7.65-5.17,11.8-6.82,1.01-.49,2.03-.74,2.96-1.39,2.8-1.74,5.79-3.89,8.9-5.03,2.11-.82,4.65-1.36,6.78-.25,1.01.57,1.73,1.87,1.17,2.97h0Z"/>
        <path class="cls-5" d="m216.16,102.98c-4.31-2.5-10.02.85-13.5,3.52-.9.66-2.04.81-2.96,1.02-3.28.72-6.4,2.07-9.21,3.87-.67.42-1.61,1.14-2.4,1.25-3.37.61-6.56,1.76-9.72,3.12,2.91-1.79,6.12-3.29,9.47-4.07.27-.09.52-.15.73-.3.15-.11,1.14-.8,1.32-.92,2.13-1.51,4.55-2.68,7.02-3.48,1.72-.71,3.72-.65,5.05-1.43,3.67-2.71,10.08-5.82,14.2-2.58h0Z"/>
        <path class="cls-5" d="m208.22,131.3c-1.23.35-2.83.03-3.44-1.27-.63-1.79-.61-4.2.24-5.89.52-.69,1.2-1.12,1.97-1.4.88-.2,1.85-.09,2.74-.1,2.5.22,7.13.75,7.65,3.76.02,1.32.19,2.91-.82,3.87-.55.44-1.17.65-1.79.81-.62.15-1.25.23-1.87.21,1.35-.35,3.13-.73,3.56-2.11.05-1.3.36-2.96-.88-3.79-2.01-1.2-4.52-1.44-6.81-1.54-.58,0-1.29-.05-1.61.09-.72.27-1.41.75-1.54,1.51-.68,2.55-1.13,6.06,2.59,5.84h0Z"/>
        <path class="cls-5" d="m173.15,132.83c6.25-2.07,12.98-2.06,19.43-1.03,3.19.31,6.43.4,9.65.34,3.24-.17,6.52.3,9.7-.46-2.61,1.18-6.82,1.13-9.65,1.44-4.88.42-9.86.08-14.68-.72-4.8-.57-9.66-.27-14.46.44h0Z"/>
        <path class="cls-5" d="m212.48,122.81c-6.12-3.69-13.34-2.15-20.08-2.22-4.14-.34-8.12-1.48-12.12-2.58-2.69-.69-4.87-2.58-7.38-3.69-2.45-1.16-4.99-2.08-7.63-2.66-5.31-1.12-10.77-1.37-16.21-1.17-2.68.13-5.46-.48-8.04.17-3.38.72-5.94,3.33-9.17,4.45-2.11.4-3.72,1.06-5.56,2.22-2.36,1.42-4.79,2.7-7.18,4.02-4.77,2.66-9.54,5.42-14.43,7.88-4.91,2.43-9.66,5.15-14.53,7.66,4.27-2.49,9.95-5.96,14.23-8.23,7.21-3.9,14.21-8.24,21.34-12.29,1.65-1.09,3.81-2.02,5.78-2.37,3.19-1.21,5.76-3.78,9.2-4.53,2.77-.74,5.55-.1,8.33-.2,5.48-.16,11.08.13,16.47,1.3,2.71.61,5.35,1.59,7.84,2.79,2.51,1.11,4.52,3.03,7.2,3.78,3.86,1.15,7.85,2.37,11.89,2.78,6.7.2,14.12-1.05,20.03,2.89h0Z"/>
        <path class="cls-5" d="m151.5,138.39c-5.1,1.43-10.9,1.19-15.78-.96,3.79.48,7.98.55,11.81.64,1.23.05,2.66-.03,3.97.32h0Z"/>
        <path class="cls-5" d="m164.47,97.07c-8.34,1.96-23.73-2.68-20.56-13.66.07-.24.28-.98.26-1.15.04.09.1.19.31.22.14,0,.06,0,.01.01l-.2.04c-1.89.25-3.89-.72-4.64-2.53-.13-.33-.05-.85.26-1.09,1.62-1.14,3.58-1.77,5.54-1.92.41.05.54.42.58.66.12,1.03-.21,1.93-.49,2.83.15-.89.36-1.88.17-2.76-.05-.2-.19-.36-.28-.33-1.58.24-3.06,1.01-4.45,1.77-.2.12-.45.27-.53.42.35,1.14,1.93,1.85,3.05,1.9.58.03,1.23-.41,1.66.21.37.7,0,1.38-.1,2.02-2.79,9.95,11.87,14.08,19.41,13.36h0Z"/>
        <path class="cls-5" d="m283.78,39.12c-6.55.46-13.12.21-19.66-.24-9.7-.77-19.72-.92-28.86,2.86-3.07,1.16-5.71,3.13-8.73,4.46-3.73,1.63-7.77,2.48-11.03,5.01-4.6,3.83-10.95,3.48-16.27,5.64-3.04,1.11-5.85,2.64-8.41,4.68-1.32,1.04-2.96,2-4.7,2.09-2.55-.01-4.63.81-6.9,1.88-2.29.89-4.93.82-7.18,1.67-1.47.62-3.17,1.16-4.77,1.42-4.84.94-9.86.37-14.62,1.61-3.2.75-6,2.5-8.81,4.13-1.53.63-3.04,1.23-4.62,1.73-.38.13-.79.23-1.1.47-.33.25-.24.73-.02,1.05.42.69,1.03,1.29,1.81,1.58-.94-.35-1.85-1.14-2.1-2.13-.03-.22.07-.45.24-.59,1.05-.66,2.31-.86,3.42-1.42,3.86-1.47,6.9-4.43,11.03-5.41,6.35-1.76,13.19-.48,19.22-3.34,2.36-.94,4.82-.88,7.13-1.77,2.18-1.08,4.71-2,7.19-1.98,1.54-.1,2.83-.88,4.12-1.89,2.56-2.07,5.56-3.74,8.67-4.89,5.25-2.22,11.42-1.81,15.98-5.5,3.32-2.56,7.51-3.47,11.28-5.07,2.99-1.3,5.7-3.28,8.79-4.42,15.71-6.39,32.63-.7,48.92-1.61h0Z"/>
        <path class="cls-5" d="m142.18,77.36c.38-.57.62-1.61.39-2.08.09.01-.02.03-.1.08-.18.09-.73.35-.93.44-.87.37-2.22.85-3.11,1.17.1-.13.03-.04.04-.06-.07.13.07.46.1.61.17.73.66,1.33,1.43,1.55-.87.16-1.76-.52-2.08-1.34-.14-.32-.32-.68-.22-1.05.05-.12.01-.15.21-.35.71-.45,1.28-.6,2.01-.9.6-.22,1.67-.62,2.27-.82,1.82-.45.97,2.28,0,2.75h0Z"/>
        <path class="cls-5" d="m146.9,72.19c-2.42,2.07-5.35,3.87-8.57,4.27,2.86-1.45,5.76-2.69,8.57-4.27h0Z"/>
        <path class="cls-5" d="m283.94,82.01c-6.55-.38-12.99-1.8-19.44-2.8-2.45-.37-4.85-.53-7.33-.74-2.44-.29-4.76-1.48-7.14-1.66-2.31-.13-4.81.03-6.72,1.45,0,0-1.93,1.51-1.93,1.51-2.45,1.96-6.29,5.19-9.31,2.25-1.52-2.22-4.01-3.89-6.77-3.72-.69.07-5.29.49-6.11.56-3.34.1-5.62,2.49-7.92,4.67-2.36,2.26-4.88,4.46-7.54,6.39-2.63,1.98-5.44,3.85-8.71,4.87-3.33.57-6.08,1.78-8.72,3.9-1.56.99-3.38,1.1-5.01,1.13-3.32-.03-6.57-.13-9.87-.48-2.43-.35-5.27-.86-6.92-2.9-.52-.85-.53-1.64-.67-2.54-.11-1.46-.19-3.12.66-4.4.04-.02.03-.13.01.09.09.23.09.12.05.12l-.27-.14c-.72-.44-1.4-.81-2.15-1.13-.37-.21-1.66-.61-2.01-.98-1.35-1.51,4.55-5.08,5.76-4.54,1.45.93,1.53,3.13.89,4.58-.35.75-.91,1.39-1.6,1.84.67-.47,1.21-1.12,1.52-1.87.56-1.37.45-3.49-.9-4.33-.74-.21-1.51.41-2.16.74-1.24.74-2.96,1.63-3.25,3.11,0,.21.45.36.81.51l1.15.45c.87.33,1.7.8,2.51,1.23.04.06.14,0,.27.32-.01.32-.1.29-.11.36-.72,1.16-.58,2.64-.47,3.96.08.69.23,1.62.57,2.17,2.84,2.89,7.51,2.49,11.29,2.73,3.04-.06,6.65.59,9.33-.95,2.52-2.09,5.77-3.52,8.99-4.09,3.03-.95,5.77-2.81,8.31-4.74,2.63-1.93,5.04-4.07,7.4-6.34,2.37-2.28,5.12-4.88,8.65-4.94.76-.06,5.43-.46,6.12-.53,3.07-.21,6.02,1.63,7.68,4.11,2.54,2.35,5.68-.71,7.88-2.31,0,0,1.97-1.48,1.97-1.48,2.09-1.53,4.92-1.72,7.4-1.52,2.54.24,4.71,1.44,7.16,1.79,9.02.6,17.66,3.51,26.66,4.29h0Z"/>
        <path class="cls-5" d="m176.43,77.43c-2.31,2.32-5.41,3.56-8.41,4.71-2.2.88-4.43,1.72-6.37,3.09-.62.46-1.24.99-1.5,1.77.26-1.66,1.86-2.72,3.14-3.62,1.69-1.11,3.56-1.97,5.4-2.76,2.54-1.18,5.08-2.3,7.74-3.19h0Z"/>
        <path class="cls-5" d="m155.19,72.92c-2.78,1.09-5.19,2.51-7.74,4.01-2.35,1.09-5.16,1.05-7.39,2.47,1.69-2.27,5.03-2.52,7.23-3.81,2.36-1.44,5.1-2.63,7.91-2.67h0Z"/>
      </g>
    </g>
    <text class="cls-2" transform="translate(.14 182.03)"><tspan x="0" y="0">Les Sourires d’Hindi</tspan></text>
    <text class="cls-1" transform="translate(0 181.83)"><tspan x="0" y="0">Les Sourires d’Hindi</tspan></text>
  </g>
</svg>