<?xml version="1.0" standalone="no"?>
<!DOCTYPE svg PUBLIC "-//W3C//DTD SVG 20010904//EN"
 "http://www.w3.org/TR/2001/REC-SVG-20010904/DTD/svg10.dtd">
<svg version="1.0" xmlns="http://www.w3.org/2000/svg"
 width="1093.000000pt" height="1024.000000pt" viewBox="0 0 1093.000000 1024.000000"
 preserveAspectRatio="xMidYMid meet">

<g transform="translate(0.000000,1024.000000) scale(0.100000,-0.100000)"
fill="#000000" stroke="none">
<path d="M4180 10234 c-321 -40 -645 -173 -930 -382 -365 -269 -570 -725 -605
-1347 -21 -374 96 -858 311 -1280 172 -340 381 -630 584 -812 553 -496 1154
-507 1682 -33 179 161 330 443 413 770 107 421 123 1083 40 1566 -94 538 -335
988 -670 1248 -225 175 -448 264 -675 271 -63 2 -131 1 -150 -1z"/>
<path d="M7386 10144 c-386 -70 -783 -341 -1080 -739 -222 -296 -358 -568
-427 -850 -48 -197 -61 -312 -66 -585 -7 -345 20 -607 93 -910 50 -209 252
-530 455 -725 282 -270 586 -366 920 -291 235 54 443 180 669 406 179 179 312
357 497 663 240 398 366 760 428 1227 22 163 31 609 16 733 -36 283 -146 511
-341 707 -196 197 -436 320 -715 365 -113 19 -344 18 -449 -1z"/>
<path d="M1107 7789 c-260 -25 -486 -137 -687 -338 -202 -203 -340 -468 -392
-751 -28 -151 -31 -506 -5 -673 53 -347 166 -683 352 -1052 145 -285 247 -431
413 -586 130 -122 323 -260 458 -327 321 -161 739 -191 1079 -77 93 31 374
170 457 226 234 159 409 403 478 668 80 302 65 581 -52 980 -81 280 -158 481
-268 706 -202 412 -455 728 -769 959 -174 129 -516 243 -797 266 -133 11 -143
11 -267 -1z"/>
<path d="M9685 7530 c-247 -22 -475 -119 -731 -311 -111 -83 -314 -277 -397
-377 -166 -203 -341 -520 -495 -892 -137 -332 -166 -466 -166 -760 -1 -327 51
-545 204 -856 97 -197 183 -275 448 -408 100 -50 257 -102 372 -122 71 -12
130 -15 235 -11 275 10 419 72 715 310 131 105 360 340 463 474 312 409 497
861 572 1393 18 132 21 417 5 531 -53 378 -279 715 -600 892 -81 44 -246 102
-348 121 -104 20 -181 24 -277 16z"/>
<path d="M5170 5953 c-330 -33 -668 -123 -845 -223 -93 -53 -239 -188 -320
-296 -96 -128 -183 -278 -385 -671 -143 -278 -289 -404 -735 -635 -297 -154
-432 -241 -635 -407 -292 -239 -538 -542 -686 -845 -151 -312 -214 -615 -201
-971 10 -257 67 -476 183 -705 86 -168 176 -292 314 -431 165 -166 231 -212
564 -394 426 -233 746 -338 1116 -366 362 -27 615 13 1165 185 512 159 552
168 745 168 210 -1 337 -28 780 -162 499 -152 711 -191 1020 -191 510 0 989
148 1446 449 198 130 346 265 446 407 333 471 462 1068 348 1613 -41 196 -138
434 -232 569 -219 314 -776 737 -1343 1021 -85 42 -109 60 -161 118 -154 174
-246 303 -559 788 -241 372 -307 454 -463 571 -261 195 -627 322 -1144 394
-135 19 -312 25 -418 14z"/>
</g>
</svg>
