<svg xmlns="http://www.w3.org/2000/svg" version="1.1" xmlns:xlink="http://www.w3.org/1999/xlink" viewBox="0 0 700 700" style="overflow: hidden; display: block;" width="700" height="700"><defs><linearGradient id="two-49" x1="350" y1="-350" x2="350" y2="350" spreadMethod="pad" gradientUnits="userSpaceOnUse"><stop offset="0%" stop-color="hsl(1.4, 100%, 67%)" stop-opacity="1"></stop><stop offset="100%" stop-color="hsl(167, 52%, 78%)" stop-opacity="1"></stop></linearGradient></defs><g id="two-0" transform="matrix(1 0 0 1 0 0)" opacity="1"><path transform="matrix(1 0 0 1 350 350)" id="two-657" d="M 258.08558 106.902547 C 242.789187 149.582913 278.900606 215.16905 243.517897 243.517897 C 204.707971 274.61265 141.22835 211.504656 93.791831 226.433512 C 54.403317 238.829563 40.275203 300.151246 0 309.263056 C -38.342827 317.937688 -81.164765 297.296312 -114.539193 276.522071 C -146.668058 256.523141 -162.912529 216.298657 -191.500556 191.500555 C -222.471939 164.635058 -270.806995 155.456862 -294.465199 121.971479 C -318.456779 88.014242 -331.139521 41.263782 -326.041477 0 C -320.964119 -41.096349 -291.733468 -77.748786 -265.973933 -110.170011 C -243.319194 -138.683508 -205.415106 -154.421929 -183.531323 -183.531323 C -157.041413 -218.7677 -163.229027 -280.541213 -125.949453 -304.068876 C -90.800739 -326.251721 -40.888885 -311.630313 -0.000001 -304.173117 C 37.807603 -297.277876 73.337013 -277.475204 108.926455 -262.971728 C 144.673059 -248.404204 184.504738 -238.277875 216.09542 -216.095421 C 249.920995 -192.343661 283.093666 -161.818584 302.267568 -125.203327 C 321.848839 -87.810142 336.324764 -41.4662 328.436113 -0.000001 C 320.543439 41.487339 272.333657 67.147221 258.08558 106.902547 Z " fill="#fff0ed" stroke="undefined" stroke-width="1" stroke-opacity="1" fill-opacity="1" visibility="visible" stroke-linecap="butt" stroke-linejoin="miter" stroke-miterlimit="4"></path></g></svg>